<svg width="144" height="71" viewBox="0 0 144 71" fill="none" xmlns="http://www.w3.org/2000/svg">
<path d="M9.96756 71H7.90548C7.83896 70.8943 7.75198 70.8163 7.64452 70.7634C7.53707 70.7105 7.42962 70.6703 7.32472 70.6451C7.21727 70.6174 7.10982 70.5872 7.00492 70.5469C5.76409 69.9177 5.1424 68.9109 5.1424 67.5315C5.16798 66.4291 5.44941 65.3971 5.98412 64.4381C6.6928 63.1242 7.56777 61.9286 8.60648 60.8513C10.9167 58.4601 13.4393 56.3131 16.1768 54.4102C21.3039 50.7857 26.9503 48.3089 33.1186 46.9825C34.1854 46.7585 34.9939 46.2072 35.5414 45.3288C41.3362 36.7004 47.571 25.779 54.2459 12.5646C54.6732 11.6987 55.0876 10.8253 55.4868 9.94435C55.3665 9.86632 55.2667 9.82605 55.1874 9.82605C55.1081 9.82605 55.0442 9.85374 54.9981 9.90408C54.952 9.95693 54.9111 10.0098 54.8779 10.0626C54.8446 10.1155 54.8139 10.1533 54.7883 10.1809C53.2379 11.9404 51.6978 13.7073 50.1627 15.4818C45.4373 20.9992 40.4075 26.217 35.0732 31.1352C29.7389 36.0535 23.916 40.3123 17.6018 43.9117C15.4119 45.1979 13.1093 46.2425 10.6941 47.0454C9.43797 47.4657 8.15109 47.6772 6.82839 47.6772C6.48045 47.6772 6.12739 47.6646 5.76665 47.6369C2.89612 47.2291 1.07453 45.5805 0.299334 42.6909C0.0997779 41.81 0 40.9366 0 40.0707C0 38.8625 0.166297 37.5436 0.501448 36.1114C1.27665 32.7763 2.43816 29.5772 3.986 26.5165C7.64452 19.1617 12.022 12.2449 17.1234 5.77111C18.2977 4.22062 19.6051 2.78339 21.048 1.45692C21.5674 0.945959 22.0816 0.591057 22.5907 0.392212C22.885 0.392212 23.0436 0.490376 23.0717 0.686704C23.0717 0.832692 23.0385 0.935891 22.9719 1.00133C21.9563 1.77658 21.0429 2.63992 20.2293 3.59136C19.4158 4.5428 18.6329 5.52444 17.8858 6.53629C12.6923 13.3801 8.27389 20.6694 4.62816 28.4043C2.85263 32.278 1.79856 35.7993 1.46341 38.9632C1.42247 39.3307 1.40457 39.6931 1.40457 40.0481C1.40457 40.8887 1.51202 41.7168 1.72437 42.5298C2.39211 45.0393 4.10624 46.2928 6.87188 46.2928C7.76733 46.2928 8.64742 46.1745 9.51472 45.9379C11.4642 45.3867 13.3267 44.6316 15.1023 43.6726C20.4545 40.8485 25.4408 37.4933 30.0613 33.6045C35.9354 28.7189 41.876 22.8618 47.8832 16.0305L50.086 13.5085C51.8615 11.447 53.4426 9.68509 54.8318 8.22773C55.6454 7.45249 56.2261 7.06486 56.5741 7.06486C56.7199 7.06486 56.8683 7.10514 57.0141 7.18316C57.3211 7.39459 57.4746 7.66392 57.4746 7.99113C57.4746 8.59522 57.0474 9.78326 56.1929 11.5578C53.3633 17.2714 50.4185 22.9222 47.3612 28.51C44.304 34.0978 41.019 39.5597 37.5088 44.8908C37.1481 45.4169 36.969 45.7516 36.969 45.8951C36.969 46.026 37.0483 46.104 37.2095 46.1317C37.6112 46.1191 38.0103 46.0864 38.4119 46.0336C40.5866 45.7315 42.7638 45.5805 44.941 45.5805C45.4757 45.5805 46.0027 45.588 46.5221 45.6006C46.6551 45.6132 46.7958 45.6208 46.9417 45.6208C48.8247 45.661 50.6923 45.8297 52.5497 46.1342C52.9897 46.2399 53.2379 46.3507 53.2891 46.469L53.3095 46.6276C53.2686 46.7585 53.197 46.8239 53.0895 46.8239C52.276 46.7962 51.4675 46.7585 50.6667 46.7056C48.1441 46.5999 46.5886 46.542 46.0002 46.5294C42.9966 46.5697 40.0109 46.8315 37.0483 47.3172C36.1145 47.4355 35.3725 47.8962 34.8251 48.6966C32.6888 51.7296 30.3862 54.6343 27.9173 57.4055C21.2553 65.1403 15.5423 69.5678 10.776 70.6854C10.6686 70.7105 10.4025 70.8163 9.97523 71H9.96756ZM9.04653 69.5426C9.27423 69.5426 9.49937 69.5225 9.72707 69.4847C12.5439 68.9864 15.4016 67.4963 18.2977 65.012C23.3429 60.7028 28.2499 55.3113 33.0163 48.8375C33.0828 48.7066 33.1416 48.5556 33.1953 48.3845C33.0879 48.2938 32.9804 48.246 32.8755 48.246C32.7553 48.246 32.6427 48.2662 32.5353 48.3064C27.3699 49.6858 22.8568 51.6289 18.9987 54.1384C15.5935 56.3056 12.5029 58.8327 9.72707 61.7247C8.76511 62.7089 7.95153 63.7988 7.28379 64.9944C6.77722 65.8627 6.52394 66.6959 6.52394 67.4963C6.52394 68.5081 7.02539 69.1449 8.02573 69.4067C8.35832 69.4973 8.70115 69.5452 9.04653 69.5452V69.5426Z" fill="#6333AF"/>
<path d="M53.9236 37.0553C53.0435 37.0553 52.6035 36.6954 52.6035 35.973C52.6162 34.936 53.2047 33.7932 54.3662 32.5448C55.5277 31.2963 56.7813 30.5412 58.1296 30.2795C58.9048 30.136 59.5521 30.063 60.0714 30.063C61.0181 30.063 61.76 30.3726 62.2947 30.9893C62.4277 30.9641 62.5761 30.871 62.7347 30.7124C62.9624 30.5035 63.1415 30.3978 63.2746 30.3978C63.3667 30.3978 63.4818 30.4632 63.6148 30.5941C63.6404 30.6344 63.6558 30.6797 63.6558 30.7325C63.6558 30.8785 63.5432 31.095 63.3155 31.3819C63.0213 31.8148 62.681 32.3938 62.2947 33.1161C61.7881 34.0349 61.5349 34.7522 61.5349 35.2632C61.5349 35.5904 61.6884 35.7565 61.9954 35.7565C62.7834 35.7565 64.4438 35.0417 66.9817 33.6095C68.0358 33.0054 68.8493 32.4995 69.425 32.0917C69.7729 31.8828 69.9981 31.7771 70.1055 31.7771C70.1976 31.7771 70.2462 31.835 70.2462 31.9533C70.2462 32.1244 70.1388 32.2755 69.9264 32.4063C68.6447 33.4182 67.3169 34.2966 65.9404 35.0467C64.0856 36.1114 62.5633 36.6425 61.3762 36.6425C60.5089 36.6425 60.074 36.3455 60.074 35.7565C60.074 35.389 60.2812 34.7396 60.6957 33.8058C58.0247 35.895 55.9294 36.9722 54.4071 37.0377L53.9262 37.0578L53.9236 37.0553ZM54.5248 35.9705C55.1388 35.9176 55.7145 35.754 56.2466 35.4771C58.2217 34.5181 60.0254 33.31 61.6551 31.8526C61.7344 31.7997 61.8009 31.7142 61.8547 31.5959C61.5349 31.1755 61.0871 30.9641 60.5141 30.9641C57.6717 31.0698 55.5405 32.2981 54.1257 34.649C53.9389 34.9385 53.8443 35.233 53.8443 35.535C53.8443 35.8371 54.0234 35.9679 54.3841 35.9679H54.5248V35.9705Z" fill="#6333AF"/>
<path d="M64.2979 59.18C63.0033 59.1675 62.1539 58.5508 61.7548 57.3275C61.6346 56.8543 61.5757 56.3811 61.5757 55.9079C61.5757 55.2786 61.6832 54.6469 61.8955 54.0176C62.2153 52.9001 62.6375 51.8303 63.1568 50.8059C65.1191 46.9976 67.5957 43.3857 70.5865 39.9701C70.7195 39.8115 70.786 39.6479 70.786 39.4767C70.786 39.1495 70.4867 38.5177 69.8855 37.5864C69.8189 37.4958 69.7575 37.3826 69.7064 37.2517C69.7064 37.1611 69.7396 37.0755 69.8061 36.9949C71.3693 35.4067 72.9044 33.3754 74.4113 30.9062C74.8923 30.2241 75.1865 29.5873 75.2914 28.9958C75.2914 28.9832 75.2453 28.9757 75.1507 28.9757C74.6569 29.0159 74.3627 29.0612 74.2706 29.1141C72.362 29.8113 70.9139 31.0321 69.9238 32.7789C69.8573 32.9375 69.7499 33.0155 69.604 33.0155C69.3891 32.9626 69.2842 32.8192 69.2842 32.5826C69.2842 32.2805 69.3635 32.0112 69.5247 31.7746C70.6197 29.9623 72.1624 28.656 74.1503 27.8531C74.4829 27.7222 74.8309 27.6567 75.1916 27.6567C76.2329 27.6567 76.7548 28.0972 76.7548 28.9757C76.7011 29.5269 76.5271 30.0328 76.2354 30.4934C75.2069 32.346 73.9738 34.0525 72.5308 35.6156C71.9833 36.2449 71.4359 36.8112 70.8884 37.3096C71.2082 37.7173 71.4973 38.1502 71.7505 38.6109L72.211 38.1377C73.9047 36.3128 75.5012 34.8076 76.9978 33.6271C78.4919 32.4441 79.3337 31.835 79.5204 31.7947C79.6279 31.7947 79.7097 31.835 79.7711 31.913C79.83 31.9911 79.8607 32.0565 79.8607 32.1094C79.8607 32.2151 79.7814 32.3208 79.6202 32.424C76.6959 34.7095 74.2731 36.9622 72.3518 39.1822C72.2315 39.3257 72.1727 39.4314 72.1727 39.4969C72.1727 39.5497 72.1855 39.6076 72.2136 39.673C72.7867 41.3267 73.0758 43.0157 73.0758 44.7373C73.0758 48.2964 72.1266 51.634 70.2308 54.745C69.3507 56.2955 68.1483 57.5289 66.626 58.4501C65.9199 58.8956 65.1447 59.1398 64.303 59.18H64.2979ZM64.1981 57.8007C64.8531 57.8007 65.5669 57.5314 66.3421 56.9927C67.4498 56.2049 68.3376 55.2333 69.0054 54.078C70.7809 51.1104 71.6687 47.9365 71.6687 44.5611C71.6687 43.0232 71.51 41.7169 71.1877 40.6396C71.0802 40.6799 70.9805 40.7705 70.8884 40.9165C67.7236 44.7776 65.3008 48.7042 63.6199 52.6987C63.1261 53.8011 62.878 54.9565 62.878 56.1672L62.8984 56.2653C62.965 57.2898 63.3999 57.8032 64.2007 57.8032L64.1981 57.8007Z" fill="#6333AF"/>
<path d="M75.3707 42.0995C75.1967 42.0995 75.0177 42.0466 74.8309 41.9409C74.616 41.7823 74.5034 41.6464 74.4906 41.5281C74.4778 41.4098 74.4702 41.3368 74.4702 41.3116C74.4702 40.9039 74.6364 40.3602 74.9716 39.6756C76.5476 36.4437 78.2899 33.3125 80.1984 30.277C81.0401 28.9757 81.7872 28.0041 82.4422 27.3622C82.6417 27.1659 82.8157 27.0677 82.9615 27.0677C83.0562 27.0677 83.1559 27.1105 83.2608 27.1961C83.3683 27.2817 83.422 27.4025 83.422 27.5611C83.3811 27.7448 83.2148 28.0469 82.9206 28.4672C80.838 31.7243 78.8757 35.1399 77.0337 38.7115C76.8341 39.001 76.7267 39.2628 76.7139 39.4994C76.9544 39.4088 77.1539 39.2754 77.3151 39.1042C77.356 39.0513 77.4558 38.9607 77.617 38.8273C81.209 35.5955 84.7319 32.726 88.1909 30.2191C88.3649 30.0882 88.5107 30.0227 88.6309 30.0227C88.6975 30.0227 88.7768 30.0504 88.8714 30.1008C89.1119 30.2468 89.2322 30.4355 89.2322 30.6721C89.2322 31.027 89.0659 31.8149 88.7307 33.0356C88.4365 34.2967 88.2907 35.1298 88.2907 35.5376C88.2907 35.8648 88.4109 36.0309 88.6514 36.0309C88.7589 36.0309 88.9456 35.9529 89.2117 35.7943C90.1992 35.2682 91.1075 34.6717 91.9364 34.0022C93.7912 32.5977 95.5668 31.1051 97.263 29.5294C98.358 28.5327 98.9592 28.0167 99.0641 27.9839C99.1716 27.9512 99.2432 27.9336 99.2842 27.9336C99.3763 27.9336 99.4811 27.9764 99.5937 28.062C99.7063 28.1476 99.7651 28.2633 99.7651 28.4068C99.7523 28.5125 99.0897 29.9246 97.7824 32.643C97.4216 33.3402 97.2093 34.0299 97.1428 34.712C97.1428 35.0669 97.3628 35.2431 97.8028 35.2431C98.5908 35.2431 99.2969 35.1449 99.9263 34.9486C101.996 34.3042 103.979 33.4635 105.875 32.4265C106.622 31.9936 107.049 31.7771 107.156 31.7771C107.236 31.7771 107.307 31.8174 107.366 31.8954C107.428 31.9734 107.456 32.0389 107.456 32.0917C107.456 32.1975 107.364 32.3082 107.177 32.4265C107.136 32.4542 107.098 32.4819 107.057 32.5146C107.016 32.5473 106.957 32.5826 106.878 32.6228C104.995 33.753 103.053 34.7573 101.049 35.6382C99.7549 36.2172 98.6522 36.5041 97.744 36.5041C96.516 36.5041 95.8482 35.978 95.7408 34.9284C95.7408 34.2715 95.8405 33.6926 96.0401 33.1942C96.3471 32.4466 96.6669 31.684 97.0021 30.9087C96.8281 30.9616 96.649 31.0799 96.4622 31.2636C96.2755 31.4474 95.8943 31.7897 95.3212 32.2881C93.4382 34.0752 91.655 35.5527 89.9741 36.7206C89.3729 37.1535 88.7998 37.37 88.2523 37.37C87.3441 37.37 86.8912 36.6878 86.8912 35.3211C86.8912 34.8479 87.1368 33.6397 87.6306 31.6966C87.3236 31.84 87.0575 32.0188 86.8298 32.2277C84.187 34.4603 81.6311 36.7332 79.1597 39.0438C77.6375 40.476 76.5962 41.4022 76.0359 41.8226C75.8236 42.0063 75.6035 42.0969 75.3758 42.0969L75.3707 42.0995Z" fill="#6333AF"/>
<path d="M107.251 36.2852C106.77 36.2852 106.458 36.1744 106.31 35.9504C106.189 35.8321 106.13 35.5376 106.13 35.0644C106.13 34.0526 106.565 32.8973 107.433 31.5959C107.607 31.2939 107.847 31.1303 108.154 31.1026C108.315 31.1026 108.441 31.1429 108.535 31.2209C108.63 31.2989 108.676 31.3921 108.676 31.4953C108.676 31.5607 108.602 31.7394 108.456 32.0264C107.763 33.3403 107.415 34.332 107.415 35.0015L107.435 35.2381C107.502 35.3035 107.63 35.3363 107.816 35.3363C108.364 35.3363 109.899 34.8907 112.422 33.9972C113.422 33.602 114.944 32.8947 116.988 31.8703C117.134 31.8174 117.288 31.7923 117.449 31.7923C117.715 31.7923 117.85 31.8577 117.85 31.9886C117.85 32.2 117.224 32.6053 115.968 33.2094C114.901 33.7732 113.831 34.2665 112.764 34.6869C110.147 35.7516 108.31 36.2827 107.256 36.2827L107.251 36.2852ZM109.433 29.5093C109.259 29.4967 109.116 29.4237 109.004 29.2929C108.891 29.162 108.832 29.0235 108.832 28.8801C108.832 28.6963 108.899 28.5478 109.032 28.4371C109.165 28.3263 109.318 28.2684 109.492 28.2684C109.653 28.2961 109.786 28.3666 109.894 28.4849C110.001 28.6032 110.055 28.7467 110.055 28.9178C110.042 29.0764 109.976 29.2098 109.855 29.3206C109.735 29.4313 109.595 29.4942 109.433 29.5068V29.5093Z" fill="#6333AF"/>
<path d="M114.22 38.0596C114.128 38.0596 114.021 38.0345 113.9 37.9816C113.688 37.8382 113.581 37.6594 113.581 37.4505C113.581 37.2542 113.675 36.9773 113.862 36.6224C114.944 34.6138 116.111 32.6631 117.367 30.7703C117.712 30.272 117.981 30.0228 118.168 30.0228C118.247 30.0228 118.332 30.0555 118.419 30.1209C118.506 30.1864 118.549 30.272 118.549 30.3777C118.549 30.496 117.781 32.0062 116.246 34.9083C116.446 34.8555 116.681 34.717 116.947 34.4955C118.549 33.1565 120.325 31.8426 122.274 30.5564C122.622 30.3324 122.988 30.1436 123.374 29.985C123.466 29.9322 123.553 29.907 123.635 29.907C123.755 29.907 123.863 29.9473 123.955 30.0253C124.101 30.1436 124.175 30.282 124.175 30.4381C124.175 30.5564 124.042 30.8911 123.773 31.4424C122.691 33.4787 122.126 34.9562 122.072 35.8749C122.072 36.1769 122.246 36.3279 122.591 36.3279C123.126 36.3153 123.653 36.1442 124.172 35.8145C125.628 35.014 127.017 33.9242 128.337 32.5448C128.79 32.0465 129.085 31.7973 129.218 31.7973C129.404 31.7973 129.499 31.8829 129.499 32.054C129.499 32.1471 129.386 32.3359 129.159 32.6254C127.905 34.0576 126.503 35.3387 124.953 36.4664C124.38 36.8993 123.737 37.2215 123.031 37.4329C122.804 37.4858 122.591 37.5109 122.389 37.5109C121.962 37.5109 121.601 37.3926 121.307 37.156C120.959 36.854 120.788 36.4135 120.788 35.8371C120.841 34.9561 121.148 34.0374 121.709 33.0784C121.936 32.6581 122.182 32.2252 122.451 31.7771L122.832 31.1076C122.497 31.2133 122.223 31.3568 122.011 31.5405C119.542 33.2999 117.265 35.2506 115.182 37.3926C115.157 37.4329 115.123 37.4656 115.082 37.4908C114.722 37.8734 114.435 38.0622 114.22 38.0622V38.0596Z" fill="#6333AF"/>
<path d="M127.677 37.0553C126.797 37.0553 126.357 36.6954 126.357 35.973C126.37 34.936 126.958 33.7932 128.12 32.5448C129.281 31.2963 130.535 30.5412 131.883 30.2795C132.659 30.136 133.306 30.063 133.825 30.063C134.772 30.063 135.514 30.3726 136.048 30.9893C136.182 30.9641 136.33 30.871 136.489 30.7124C136.716 30.5035 136.895 30.3978 137.028 30.3978C137.12 30.3978 137.236 30.4632 137.369 30.5941C137.394 30.6344 137.41 30.6797 137.41 30.7325C137.41 30.8785 137.297 31.095 137.069 31.3819C136.775 31.8148 136.435 32.3938 136.048 33.1161C135.542 34.0349 135.289 34.7522 135.289 35.2632C135.289 35.5904 135.442 35.7565 135.749 35.7565C136.537 35.7565 138.198 35.0417 140.735 33.6095C141.79 33.0054 142.603 32.4995 143.179 32.0917C143.527 31.8828 143.752 31.7771 143.859 31.7771C143.951 31.7771 144 31.835 144 31.9533C144 32.1244 143.893 32.2755 143.68 32.4063C142.398 33.4182 141.071 34.2966 139.694 35.0467C137.839 36.1114 136.317 36.6425 135.13 36.6425C134.263 36.6425 133.828 36.3455 133.828 35.7565C133.828 35.389 134.035 34.7396 134.449 33.8058C131.778 35.895 129.683 36.9722 128.161 37.0377L127.68 37.0578L127.677 37.0553ZM128.279 35.9705C128.893 35.9176 129.468 35.754 130 35.4771C131.976 34.5181 133.779 33.31 135.409 31.8526C135.488 31.7997 135.555 31.7142 135.608 31.5959C135.289 31.1755 134.841 30.9641 134.268 30.9641C131.425 31.0698 129.294 32.2981 127.879 34.649C127.693 34.9385 127.598 35.233 127.598 35.535C127.598 35.8371 127.777 35.9679 128.138 35.9679H128.279V35.9705Z" fill="#6333AF"/>
</svg>
